<svg width="18" height="14" viewBox="0 0 18 14" fill="none" xmlns="http://www.w3.org/2000/svg">
<path fill-rule="evenodd" clip-rule="evenodd" d="M0 0.5C0 0.223858 0.223858 0 0.5 0H17.5C17.7761 0 18 0.223858 18 0.5C18 0.776142 17.7761 1 17.5 1H0.5C0.223858 1 0 0.776142 0 0.5ZM0 7C0 6.72386 0.223858 6.5 0.5 6.5H17.5C17.7761 6.5 18 6.72386 18 7C18 7.27614 17.7761 7.5 17.5 7.5H0.5C0.223858 7.5 0 7.27614 0 7ZM0.5 13C0.223858 13 0 13.2239 0 13.5C0 13.7761 0.223858 14 0.5 14H17.5C17.7761 14 18 13.7761 18 13.5C18 13.2239 17.7761 13 17.5 13H0.5Z" fill="black"/>
</svg>
