<svg width="50" height="54" viewBox="0 0 50 54" fill="none" xmlns="http://www.w3.org/2000/svg">
<path d="M23.3415 45.9286C23.6431 47.7457 24.2713 49.4367 25.1508 50.9762H5.52564C2.73641 50.9762 0.5 48.73 0.5 45.9286V5.54762C0.5 2.77143 2.73641 0.5 5.52564 0.5H25.6282L40.7051 15.6429V28.489C39.8759 28.3629 39.0467 28.2619 38.1923 28.2619C37.3379 28.2619 36.5087 28.3629 35.6795 28.489V18.1667H23.1154V5.54762H5.52564V45.9286H23.3415ZM33.1667 33.3095L26.8846 40.881H30.6538V50.9762H35.6795V40.881H39.4487L33.1667 33.3095ZM45.7308 45.9286V35.8333H40.7051V45.9286H36.9359L43.2179 53.5L49.5 45.9286H45.7308Z" fill="#84A031"/>
</svg>
