<svg width="21" height="14" viewBox="0 0 21 14" fill="none" xmlns="http://www.w3.org/2000/svg">
<path fill-rule="evenodd" clip-rule="evenodd" d="M0.5 0C0.223858 0 0 0.223858 0 0.5C0 0.776142 0.223858 1 0.5 1H17.5C17.7761 1 18 0.776142 18 0.5C18 0.223858 17.7761 0 17.5 0H0.5ZM0.5 6.5C0.223858 6.5 0 6.72386 0 7C0 7.27614 0.223858 7.5 0.5 7.5H11.5C11.7761 7.5 12 7.27614 12 7C12 6.72386 11.7761 6.5 11.5 6.5H0.5ZM14 7C14 6.83282 14.0836 6.67671 14.2226 6.58397L20.2226 2.58397C20.4524 2.4308 20.7628 2.49289 20.916 2.72265C21.0692 2.95241 21.0071 3.26285 20.7773 3.41603L15.4014 7L20.7773 10.584C21.0071 10.7372 21.0692 11.0476 20.916 11.2773C20.7628 11.5071 20.4524 11.5692 20.2226 11.416L14.2226 7.41602C14.0836 7.32329 14 7.16718 14 7ZM0.5 13C0.223858 13 0 13.2239 0 13.5C0 13.7761 0.223858 14 0.5 14H17.5C17.7761 14 18 13.7761 18 13.5C18 13.2239 17.7761 13 17.5 13H0.5Z" fill="black"/>
</svg>
